<!DOCTYPE svg PUBLIC "-//W3C//DTD SVG 1.1//EN" "http://www.w3.org/Graphics/SVG/1.1/DTD/svg11.dtd">
<!-- Uploaded to: SVG Repo, www.svgrepo.com, Transformed by: SVG Repo Mixer Tools -->
<svg width="800px" height="800px" viewBox="0 -2.55 20.095 20.095" xmlns="http://www.w3.org/2000/svg" fill="#000000">
<g id="SVGRepo_bgCarrier" stroke-width="0"/>
<g id="SVGRepo_tracerCarrier" stroke-linecap="round" stroke-linejoin="round"/>
<g id="SVGRepo_iconCarrier"> <path id="Path_13" data-name="Path 13" d="M437.249,829.36a1.874,1.874,0,0,0,1.72,1.633H447.1c.9,0,1.24-.72,1.626-1.633l1.93-4.382H440l-.136-.964h12.2l-2.262,5.346c-.678,1.556-1.213,2.66-2.709,2.66h-8.128a2.664,2.664,0,0,1-2.71-2.66l-.8-7.36h-3.484v-1h4.406Zm1.225,3.64a1.5,1.5,0,1,1-1.5,1.5A1.5,1.5,0,0,1,438.474,833Zm-.531,1.969h1V834h-1ZM446.474,833a1.5,1.5,0,1,1-1.5,1.5A1.5,1.5,0,0,1,446.474,833Zm-.531,1.969h1V834h-1Z" transform="translate(-431.973 -821)" fill="#444"/> </g>
</svg>